# xmcd
#
# Track frame offsets:
#	150
#	16853
#	34827
#	51956
#	61539
#	74987
#	92720
#	121217
#	139361
#	150976
#	163035
#	181841
#	196517
#	212509
#	226228
#	243094
#
# Disc length: 3442 seconds
#
# Revision: 3
# Processed by: cddbd v1.5.2PL0 Copyright (c) Steve Scherf et al.
# Submitted via: audiograbber 1.83.01
#
DISCID=cb0d7010
DTITLE=David Garrett - Unlimited - Greatest Hits [Deluxe Version] [CD 2)
DYEAR=2018
DGENRE=Crossover
TTITLE0=Bitter Sweet Symphony
TTITLE1=November Rain
TTITLE2=Bolero
TTITLE3=Duel Guitar vs. Violin
TTITLE4=Hungarian Dance No. 5
TTITLE5=Summertime
TTITLE6=The 5th [Ben Preston remix]
TTITLE7=Little Wing
TTITLE8=Zorba's Dance
TTITLE9=Ain't No Sunshine
TTITLE10=Ma dove sei [with Andrea Bocelli]
TTITLE11=I Have A Dream
TTITLE12=Explosive
TTITLE13=Por una Cabeza [with Martynas]
TTITLE14=Ode To Joy [with Katherine Jenkins]
TTITLE15=Io Ti Penso Amore [with Nicole Scherzinger]
EXTD=
EXTT0=
EXTT1=
EXTT2=
EXTT3=
EXTT4=
EXTT5=
EXTT6=
EXTT7=
EXTT8=
EXTT9=
EXTT10=
EXTT11=
EXTT12=
EXTT13=
EXTT14=
EXTT15=
PLAYORDER=
